<?xml version="1.0" standalone="no"?>
<!DOCTYPE svg PUBLIC "-//W3C//DTD SVG 20010904//EN"
 "http://www.w3.org/TR/2001/REC-SVG-20010904/DTD/svg10.dtd">
<svg version="1.0" xmlns="http://www.w3.org/2000/svg"
 width="419.000000pt" height="419.000000pt" viewBox="0 0 419.000000 419.000000"
 preserveAspectRatio="xMidYMid meet">
<metadata>
Created by potrace 1.11, written by Peter Selinger 2001-2013
</metadata>
<g transform="translate(0.000000,419.000000) scale(0.100000,-0.100000)"
fill="#000000" stroke="none">
<path d="M1815 4125 c-138 -22 -182 -36 -330 -106 -71 -33 -94 -52 -195 -157
-181 -187 -247 -298 -299 -507 -27 -110 -30 -133 -28 -272 1 -83 4 -154 7
-156 3 -3 172 -6 375 -6 204 -1 460 -1 570 -2 110 -1 218 -1 240 -1 389 8 831
7 836 -1 8 -11 96 -19 122 -11 14 4 15 9 7 19 -17 20 7 30 26 11 31 -31 82 -8
70 31 -3 10 -7 36 -10 59 -2 22 -11 74 -19 115 -9 41 -18 101 -22 133 -3 33
-13 69 -21 80 -8 11 -14 32 -14 47 0 15 -7 29 -16 33 -8 3 -13 10 -10 15 9 13
-31 117 -86 223 -45 89 -61 108 -166 208 -65 60 -142 126 -173 145 -64 40
-255 94 -358 101 -158 11 -430 10 -506 -1z m326 -96 c15 -8 66 -13 135 -13 78
-1 116 -6 128 -15 9 -7 16 -11 16 -8 0 4 19 0 41 -8 23 -8 52 -15 66 -15 54 0
172 -85 279 -201 56 -61 184 -236 184 -252 0 -7 4 -17 9 -23 4 -5 13 -22 19
-39 6 -16 22 -61 36 -99 14 -37 28 -89 32 -115 3 -25 8 -59 11 -76 3 -16 6
-51 5 -77 0 -27 4 -48 10 -48 5 0 8 -5 6 -11 -4 -13 -88 -21 -88 -8 0 15 -32
10 -51 -7 -14 -13 -20 -13 -38 -2 -18 11 -23 11 -30 -1 -8 -12 -13 -12 -34 2
-22 14 -26 14 -40 0 -8 -8 -20 -12 -27 -8 -9 6 -9 9 1 16 10 6 7 8 -8 6 -12 0
-21 -6 -20 -12 2 -13 -105 -14 -115 -1 -8 11 -125 8 -169 -4 -22 -6 -37 -6
-43 0 -6 6 -26 9 -45 9 -24 -1 -28 -3 -13 -6 49 -10 18 -20 -50 -18 -40 2
-109 3 -153 4 -44 0 -89 0 -100 1 -28 1 -136 1 -160 -1 -11 0 -42 2 -70 5 -27
3 -57 6 -65 6 -8 0 -26 0 -40 1 -14 1 -36 1 -50 1 -14 -1 -92 -4 -175 -7 -151
-5 -171 -6 -368 -5 l-108 0 4 53 c2 30 6 58 10 63 3 5 8 45 12 89 3 43 15 104
25 134 20 60 41 134 47 165 2 11 12 28 23 38 11 10 20 25 20 32 0 8 7 16 15
20 8 3 15 13 15 23 0 10 9 24 19 30 11 7 24 28 31 47 6 20 16 36 22 36 6 0 43
33 82 74 40 41 85 80 101 86 17 6 60 29 97 51 70 43 172 73 220 65 17 -3 31 0
34 8 3 7 24 11 57 10 28 0 60 4 70 10 12 8 22 8 37 -2 25 -15 33 -15 27 1 -6
16 82 14 114 -4z"/>
<path d="M2100 4030 c0 -5 5 -10 11 -10 5 0 7 5 4 10 -3 6 -8 10 -11 10 -2 0
-4 -4 -4 -10z"/>
<path d="M1970 4026 c0 -2 7 -7 16 -10 8 -3 12 -2 9 4 -6 10 -25 14 -25 6z"/>
<path d="M1683 2695 c-17 -7 -36 -10 -42 -5 -7 4 -78 5 -159 2 -147 -5 -293
-6 -429 -2 -40 1 -77 -1 -83 -5 -7 -4 -8 -38 -3 -98 8 -109 9 -784 1 -907 -3
-47 0 -95 5 -107 7 -16 6 -27 -2 -36 -19 -23 60 -52 139 -51 210 3 549 16 570
21 30 7 61 4 75 -7 11 -9 65 -7 81 2 5 3 29 5 54 3 101 -7 381 -8 387 -2 3 4
-12 6 -35 5 -42 -1 -74 11 -34 13 81 5 102 3 102 -8 0 -10 29 -13 113 -13 61
-1 168 -2 237 -4 92 -2 128 0 137 10 7 7 23 10 36 8 12 -3 55 -7 95 -9 40 -1
76 -6 80 -10 4 -4 0 -6 -8 -5 -26 4 -50 0 -50 -7 0 -5 27 -9 60 -9 49 -1 58 1
49 12 -8 10 -6 13 10 11 12 -1 21 -6 21 -12 0 -16 72 -15 87 1 15 15 18 58 3
49 -5 -3 -10 -1 -10 4 0 6 8 11 19 11 23 0 33 40 20 82 -10 38 -22 161 -19
218 1 25 2 205 3 402 1 196 6 360 10 365 5 4 13 8 18 8 24 0 6 21 -23 26 -31
6 -31 6 -5 8 15 0 27 5 27 11 0 5 -3 9 -7 8 -5 -1 -17 3 -28 9 -11 6 -42 9
-70 6 -27 -2 -54 -4 -60 -4 -5 0 -29 2 -53 4 -24 2 -45 0 -48 -4 -4 -8 -41 -6
-115 6 -30 4 -49 3 -53 -4 -4 -5 -13 -8 -20 -5 -7 3 -16 -2 -19 -10 -9 -23
-135 -19 -161 5 -16 15 -38 18 -155 17 -75 0 -138 1 -141 2 -21 8 -260 8 -260
0 0 -6 -5 -10 -11 -10 -5 0 -8 3 -6 8 9 13 -297 11 -330 -3z m-614 -74 c24
-13 162 -15 411 -6 251 9 735 9 965 1 218 -8 452 -14 583 -15 63 -1 101 -5 97
-11 -3 -5 -5 -69 -5 -142 1 -127 1 -168 -4 -213 -1 -11 4 -35 11 -53 10 -24
11 -38 2 -53 -6 -11 -10 -44 -10 -72 0 -29 0 -86 1 -127 0 -41 0 -88 0 -105
-1 -16 -1 -70 -1 -120 -1 -118 -1 -115 -13 -115 -6 0 -5 -4 3 -9 10 -6 -13
-10 -65 -11 -43 0 -90 -1 -104 -2 -14 0 -45 3 -70 6 -94 12 -177 18 -240 17
-725 -8 -819 -8 -813 3 4 6 -1 5 -10 -3 -12 -9 -17 -10 -17 -2 0 7 -4 10 -8 7
-5 -3 -61 -7 -126 -10 -65 -3 -121 -7 -123 -10 -3 -3 -15 -1 -27 4 -13 4 -28
5 -35 1 -6 -4 -35 -9 -64 -10 -29 -1 -64 -3 -80 -5 -15 -2 -30 0 -32 4 -3 4
-16 8 -30 8 -15 0 -22 -5 -18 -12 4 -6 -2 -4 -12 4 -17 14 -18 13 -12 -5 7
-20 7 -20 -8 -1 -8 11 -15 16 -15 10 0 -5 -28 -7 -67 -4 -64 5 -67 6 -76 35
-9 31 -13 142 -21 620 -3 154 -9 308 -14 343 -8 57 -7 62 10 62 11 0 27 -4 37
-9z m1611 -1101 c18 -12 2 -12 -25 0 -13 6 -15 9 -5 9 8 0 22 -4 30 -9z"/>
<path d="M2816 1500 c-26 -9 -10 -16 44 -19 25 -2 48 -5 51 -7 3 -1 6 3 6 10
0 8 -6 12 -14 9 -7 -3 -25 -1 -40 5 -16 5 -37 6 -47 2z"/>
<path d="M1659 1305 c-17 -16 -355 -33 -370 -18 -5 5 -32 6 -61 3 -28 -4 -65
-6 -82 -5 -17 2 -47 4 -66 5 -53 4 -87 -9 -94 -34 -7 -30 -8 -423 -1 -606 3
-80 5 -156 5 -170 -3 -155 -10 -335 -14 -346 -10 -27 23 -42 111 -49 108 -10
180 -8 214 6 16 6 68 8 140 4 141 -8 1642 -15 1669 -8 27 7 25 22 -2 32 -21 8
-21 10 -5 16 11 5 25 1 36 -9 25 -23 47 -20 71 12 18 22 21 34 15 67 -4 22 -8
58 -10 80 -2 39 -11 156 -21 260 -7 87 -18 485 -16 603 1 111 1 113 -24 124
-13 6 -23 16 -21 22 3 7 -28 11 -93 11 -54 0 -93 -3 -87 -7 15 -10 30 -9 -268
-9 -137 0 -299 0 -360 0 -60 -1 -128 0 -150 1 -22 1 -68 2 -102 4 -35 1 -63
-2 -63 -7 0 -5 -12 -6 -27 -2 -16 4 -73 9 -129 11 -55 2 -108 6 -118 10 -9 4
-22 2 -28 -4 -7 -7 -17 -8 -28 -2 -10 5 -19 7 -21 5z m448 -90 c192 -3 443 -7
558 -10 116 -3 268 -6 340 -8 l130 -3 -2 -55 c-3 -92 -6 -617 -4 -754 3 -200
3 -195 -16 -192 -10 1 -23 6 -30 10 -6 4 -13 2 -15 -5 -3 -9 -89 -13 -359 -14
-195 -1 -370 -6 -389 -11 -36 -10 -54 -9 -150 1 -31 3 -72 0 -93 -6 -26 -8
-41 -8 -45 -2 -8 12 -211 13 -229 1 -6 -4 -42 -7 -80 -7 -37 1 -79 1 -93 1
-20 -1 -22 1 -10 10 12 9 11 10 -5 4 -29 -10 -138 -25 -144 -20 -2 3 1 5 7 5
7 0 12 4 12 9 0 4 -11 6 -25 3 -14 -2 -25 -7 -25 -11 0 -3 -34 -7 -75 -7 -41
-1 -73 1 -71 5 2 3 -44 6 -102 6 -102 0 -107 1 -102 20 2 11 3 43 2 70 -2 45
-2 137 0 265 1 25 0 63 -2 85 -2 37 6 100 15 115 2 3 6 35 10 69 5 54 3 63
-10 57 -12 -4 -15 3 -16 37 -3 78 -2 141 1 235 l3 93 31 -1 c17 -1 33 -1 36 0
17 6 113 4 117 -3 2 -4 9 -5 14 -1 6 3 107 7 225 9 118 1 217 5 221 8 3 4 10
4 14 1 5 -3 165 -7 356 -9z"/>
</g>
</svg>
