<?xml version="1.0" standalone="no"?>
<!DOCTYPE svg PUBLIC "-//W3C//DTD SVG 20010904//EN"
 "http://www.w3.org/TR/2001/REC-SVG-20010904/DTD/svg10.dtd">
<svg version="1.0" xmlns="http://www.w3.org/2000/svg"
 width="135.000000pt" height="135.000000pt" viewBox="0 0 135.000000 135.000000"
 preserveAspectRatio="xMidYMid meet">
<metadata>
Created by potrace 1.14, written by Peter Selinger 2001-2017
</metadata>
<g transform="translate(0.000000,135.000000) scale(0.100000,-0.100000)"
fill="#000000" stroke="none">
<path d="M158 1119 c-32 -4 -67 -13 -77 -19 -34 -18 -46 -76 -46 -225 0 -209
0 -209 207 -221 l119 -7 44 -49 c67 -75 134 -167 141 -194 10 -38 -3 -69 -47
-120 -27 -31 -37 -50 -30 -57 7 -7 17 -5 33 7 13 9 38 28 57 41 48 35 88 32
151 -10 70 -47 81 -44 32 9 -66 72 -67 110 -7 189 19 25 35 50 35 56 0 25 -22
18 -65 -19 -60 -52 -89 -59 -135 -33 -36 21 -177 169 -169 178 3 2 45 9 94 14
72 9 94 15 112 34 26 25 43 97 24 97 -6 0 -11 -9 -11 -20 0 -34 -27 -77 -52
-83 -61 -15 -188 -19 -203 -7 -23 19 -19 26 29 44 35 13 46 23 51 46 4 17 15
31 28 35 86 25 430 22 539 -5 52 -13 92 -45 84 -66 -4 -10 4 -14 27 -15 l32
-1 -27 -10 c-16 -5 -28 -14 -28 -19 0 -12 12 -11 47 1 26 9 27 9 9 -5 -11 -8
-28 -15 -37 -15 -10 0 -21 -4 -24 -10 -4 -6 6 -10 22 -10 l28 0 -25 -20 c-21
-16 -22 -20 -7 -20 15 0 17 -5 11 -22 -11 -35 -10 -61 3 -65 7 -3 10 3 6 15
-2 11 0 23 6 26 7 5 11 -3 11 -21 0 -15 3 -38 6 -49 4 -16 0 -23 -18 -29 l-23
-8 24 -4 c13 -3 35 -17 48 -31 24 -26 25 -21 7 23 -4 10 0 15 14 15 24 0 30
14 38 85 6 51 8 54 37 57 17 2 32 9 35 15 2 9 -5 11 -25 8 -21 -4 -35 1 -56
20 -25 22 -28 29 -19 54 8 22 6 34 -8 56 -10 15 -21 48 -24 73 -7 52 -24 86
-33 64 -3 -8 -11 -5 -24 10 -20 25 -26 10 -8 -25 7 -16 4 -14 -11 6 -23 29
-46 37 -36 12 4 -12 -3 -11 -35 6 -70 35 -162 49 -340 49 -92 0 -180 3 -196 6
-21 4 -52 30 -99 82 l-68 75 109 -6 c151 -10 162 -13 175 -52 6 -18 8 -45 4
-59 -4 -16 -2 -26 5 -26 22 0 17 98 -7 122 -10 10 -45 21 -87 28 -82 11 -295
11 -377 -1z m112 -18 c0 -6 -4 -13 -10 -16 -5 -3 -10 -21 -10 -40 0 -45 41
-79 87 -72 20 4 36 1 43 -8 31 -38 -86 -10 -131 31 -34 33 -53 30 -85 -11 -24
-32 -28 -34 -44 -20 -18 16 -30 19 -30 8 0 -5 54 -71 120 -148 66 -77 120
-144 120 -149 0 -11 -200 1 -234 14 -33 12 -38 31 -44 155 -5 115 9 215 32
234 25 21 186 39 186 22z m70 -21 c12 -7 12 -12 1 -34 -8 -13 -11 -32 -8 -40
8 -22 -21 -21 -45 1 -18 17 -23 39 -12 67 7 18 41 21 64 6z m30 -49 c0 -6 -4
-13 -10 -16 -5 -3 -10 1 -10 9 0 9 5 16 10 16 6 0 10 -4 10 -9z m50 -42 c0
-12 -27 -11 -35 1 -11 17 5 32 21 19 8 -6 14 -15 14 -20z m-196 2 c3 -5 -4
-11 -16 -14 -25 -7 -33 -3 -23 12 8 13 32 14 39 2z m30 -47 c10 -26 7 -42 -10
-48 -38 -15 -76 22 -53 50 16 19 55 18 63 -2z m61 -6 c14 -6 25 -14 25 -18 0
-4 -23 -26 -50 -49 -42 -35 -53 -41 -65 -31 -22 18 -18 26 18 36 26 8 33 15
35 42 4 37 3 36 37 20z m151 -3 c21 -16 12 -18 -35 -9 -17 4 -28 10 -25 15 8
14 38 11 60 -6z m316 -12 c-51 -2 -132 -2 -180 0 -48 1 -6 3 93 3 99 0 138 -2
87 -3z m-383 -12 c17 -11 7 -41 -14 -41 -20 0 -77 -29 -87 -44 -13 -19 -9 -46
7 -52 8 -3 29 6 46 20 33 28 51 28 28 0 -11 -14 -10 -18 6 -30 17 -13 18 -16
5 -24 -31 -20 -67 -11 -99 25 -17 20 -31 41 -30 48 0 11 107 107 119 107 3 0
11 -4 19 -9z m104 -18 c-7 -2 -19 -2 -25 0 -7 3 -2 5 12 5 14 0 19 -2 13 -5z
m480 -18 c55 -20 58 -29 5 -15 -20 6 -87 17 -149 25 l-114 14 105 -4 c63 -2
124 -10 153 -20z m-80 -21 c54 -7 106 -18 115 -24 14 -9 11 -10 -13 -5 -16 3
-128 9 -247 12 -174 4 -215 8 -211 19 2 7 17 15 31 17 42 7 216 -3 325 -19z
m-383 -4 c-10 -19 -60 -29 -60 -12 0 16 24 32 47 32 21 0 22 -3 13 -20z m-125
-7 c-11 -3 -29 -13 -40 -23 -33 -28 -45 -33 -45 -15 0 17 53 45 85 43 l20 0
-20 -5z m818 -207 c29 -23 19 -151 -14 -159 -22 -6 -27 8 -30 89 -3 81 7 98
44 70z m-583 -255 c0 -10 -7 -21 -15 -25 -11 -4 -15 1 -15 19 0 16 6 25 15 25
8 0 15 -9 15 -19z"/>
</g>
</svg>
